<?xml version="1.0" encoding="utf-8"?>
<!-- Generator: Adobe Illustrator 15.0.0, SVG Export Plug-In . SVG Version: 6.00 Build 0)  -->
<!DOCTYPE svg PUBLIC "-//W3C//DTD SVG 1.1//EN" "http://www.w3.org/Graphics/SVG/1.1/DTD/svg11.dtd">
<svg version="1.1" id="Calque_1" xmlns="http://www.w3.org/2000/svg" xmlns:xlink="http://www.w3.org/1999/xlink" x="0px" y="0px"
	 width="35px" height="35px" viewBox="2.5 0 35 35" enable-background="new 2.5 0 35 35" xml:space="preserve">
<rect x="2.5" fill="#3B5998" width="35" height="35"/>
<path fill="#FFFFFF" d="M26.184,13.469h-3.9v-2.591c0.285-2.452,4.334-1.985,4.334-1.985l0.002-0.168l-0.002-0.021V4.677l0,0V4.676
	h-0.005c-0.142-0.031-8.055-1.91-9.625,4.114c0,0,0,0.001-0.003,0.003c-0.004,0.013-0.005,0.026-0.01,0.039
	c-0.249,0.753-0.23,4.201-0.226,4.636h-3.381v4.613h3.589v12.544h5.23V18.082h3.997l0.445-4.613H26.184z"/>
</svg>
