<?xml version="1.0" encoding="utf-8"?>
<!-- Generator: Adobe Illustrator 15.0.0, SVG Export Plug-In . SVG Version: 6.00 Build 0)  -->
<svg version="1.2" baseProfile="tiny" id="Calque_1"
	 xmlns="http://www.w3.org/2000/svg" xmlns:xlink="http://www.w3.org/1999/xlink" x="0px" y="0px" width="1529.935px"
	 height="669.595px" viewBox="0 0 1529.935 669.595" xml:space="preserve">
<g>
	<path fill="#C03B2B" d="M182.881,559.434c0,23.039-1.44,53.279-48.24,52.56h-64.8c-46.8,0.72-48.96-29.521-48.96-52.56V213.833
		c0-23.04,2.16-53.28,48.96-52.56h64.8c46.8-0.72,48.24,29.52,48.24,52.56V559.434z M126,228.232c0-8.64,0.72-10.08-11.52-10.08
		c-4.32,0-21.6,0-25.2,0c-12.24,0-10.8,1.44-10.8,10.08v316.801c0,8.64-1.44,10.08,10.8,10.08c3.6,0,20.88,0,25.2,0
		c12.24,0,11.52-1.44,11.52-10.08V228.232z"/>
	<path d="M346.314,390.953l38.16,221.041h-57.6l-33.841-197.28c-5.76,0-10.8,0-12.96,0l-0.72,197.28h-56.88v-210.24v-174.24v-66.96
		c0,0,95.76,0,113.04,0c46.8,0,48.96,30.24,48.96,52.56v92.88c-0.721,36.72-10.801,59.04-25.92,75.6L346.314,390.953z
		 M326.875,303.113v-75.6c0-7.92,0.72-9.36-11.521-9.36c-5.04,0-28.8,0-36,0v138.96
		C313.914,358.553,326.875,334.073,326.875,303.113z"/>
	<path d="M573.107,218.152h-51.119v393.841h-57.601V218.152h-50.4v-56.88h159.12V218.152z"/>
	<path d="M660.942,357.833h81.36v57.6h-81.36v129.601c0,7.92-0.72,9.359,11.521,9.359c82.08,0,83.52,0,84.24,0v57.601h-104.4
		c-46.801,0-48.961-30.24-48.961-52.56V213.833c0-23.04,2.16-52.56,48.961-52.56h104.4v57.6c-30.24,0-56.881,0-84.24,0
		c-12.24,0-11.521,1.44-11.521,9.36V357.833z"/>
	<path fill="#C03B2B" d="M953.254,559.434c0,23.039-1.44,52.56-48.24,52.56h-64.801c-46.8,0-48.96-29.521-48.96-52.56V213.112
		c0-22.32,2.16-52.56,48.96-52.56h64.801c46.8,0,48.24,30.24,48.24,52.56v86.4h-56.881v-71.28c0-8.64,0.721-10.08-11.52-10.08
		c-3.6,0-21.6,0-24.48,0c-12.96,0-11.52,1.44-11.52,10.08v316.801c0,7.92-1.44,9.359,11.52,9.359c2.881,0,20.881,0,24.48,0
		c12.24,0,11.52-1.439,11.52-9.359V415.433h-30.24v-57.6h48.24c7.2,0,38.881-0.72,38.881,35.28V559.434z"/>
	<path d="M1046.123,357.833h81.36v57.6h-81.36v129.601c0,7.92-0.72,9.359,11.52,9.359c82.08,0,83.521,0,84.24,0v57.601h-104.399
		c-46.8,0-48.96-30.24-48.96-52.56V213.833c0-23.04,2.16-52.56,48.96-52.56h104.399v57.6c-30.24,0-56.879,0-84.24,0
		c-12.239,0-11.52,1.44-11.52,9.36V357.833z"/>
	<path d="M1232.594,357.833h81.36v57.6h-81.36v129.601c0,7.92-0.72,9.359,11.52,9.359c82.08,0,83.521,0,84.24,0v57.601h-104.399
		c-46.8,0-48.96-30.24-48.96-52.56V213.833c0-23.04,2.16-52.56,48.96-52.56h104.399v57.6c-30.24,0-56.879,0-84.24,0
		c-12.239,0-11.52,1.44-11.52,9.36V357.833z"/>
	<path d="M1478.825,386.633l45.36,225.36h-57.601l-38.88-196.561h-8.641v196.561h-56.879V161.272h56.879v196.56h8.641l38.88-197.28
		h57.601L1478.825,386.633z"/>
</g>
</svg>
