<svg xmlns="http://www.w3.org/2000/svg" width="35" height="35" viewBox="-17 40.5 35 35" enable-background="new -17 40.5 35 35"><path fill="#C0392B" d="M-17 40.5h35v35h-35z"/><path fill="#fff" d="M13.62 53.18c-.02-.3-.27-.56-.6-.56H8.8v-7c0-.32-.27-.6-.6-.6H-7.18c-.33 0-.6.28-.6.6v7h-4.25c-.3 0-.57.25-.6.56V65.1c0 .34.27.6.6.6h4.25v-4.97H8.78v4.97h4.25c.33 0 .6-.26.6-.6V53.2z"/><path fill="#C0392B" d="M7.16 55.28H-6.16v-8.04c0-.32.27-.6.6-.6H6.55c.33 0 .6.28.6.6v8.04z"/><path fill="#fff" d="M-6.12 70.37c0 .33.27.6.6.6H6.52c.33 0 .6-.27.6-.6v-8H-6.12v8z"/></svg>