<?xml version="1.0" encoding="utf-8"?>
<!-- Generator: Adobe Illustrator 15.0.0, SVG Export Plug-In . SVG Version: 6.00 Build 0)  -->
<!DOCTYPE svg PUBLIC "-//W3C//DTD SVG 1.1//EN" "http://www.w3.org/Graphics/SVG/1.1/DTD/svg11.dtd">
<svg version="1.1" id="Calque_1" xmlns="http://www.w3.org/2000/svg" xmlns:xlink="http://www.w3.org/1999/xlink" x="0px" y="0px"
	 width="35px" height="35px" viewBox="2.5 0 35 35" enable-background="new 2.5 0 35 35" xml:space="preserve">
<rect x="2.5" fill="#33CCFF" width="35" height="35"/>
<path fill="#FFFFFF" d="M26.321,17.528c0.875,0,1.626-0.322,2.251-0.967c0.625-0.644,0.938-1.418,0.938-2.32
	c0-0.903-0.313-1.678-0.941-2.321c-0.627-0.645-1.38-0.967-2.257-0.967h-9.449v-3.29c0-0.904-0.312-1.677-0.933-2.32
	c-0.62-0.646-1.366-0.968-2.236-0.968c-0.895,0-1.654,0.316-2.275,0.948c-0.619,0.633-0.93,1.415-0.93,2.342v13.125
	c0,2.711,0.931,5.026,2.796,6.949c1.864,1.923,4.107,2.885,6.732,2.885h6.304c0.877,0,1.625-0.322,2.25-0.966
	c0.626-0.644,0.938-1.42,0.938-2.322s-0.313-1.675-0.938-2.32c-0.625-0.645-1.376-0.968-2.25-0.968h-6.306
	c-0.875,0-1.621-0.316-2.234-0.948c-0.613-0.636-0.918-1.405-0.918-2.312v-3.26L26.321,17.528L26.321,17.528z"/>
</svg>
